<svg id="Layer_2" data-name="Layer 2" xmlns="http://www.w3.org/2000/svg" viewBox="0 0 41.21 33.84"><defs><style>.cls-1{fill:#ef3f40;}</style></defs><polygon class="cls-1" points="7.5 0 15.06 0 15.06 3.71 18.78 3.71 18.78 7.7 22.5 7.7 22.5 3.85 26.21 3.85 26.21 0 33.78 0 33.78 3.85 37.56 3.85 37.56 7.7 41.21 7.7 41.21 15.06 37.49 15.06 37.42 18.78 33.78 18.78 33.64 22.7 29.93 22.7 29.99 26.28 26.14 26.28 26.14 29.99 22.63 29.99 22.63 33.84 18.78 33.84 18.78 30.06 14.93 30.06 14.93 26.21 11.15 26.21 11.15 22.56 7.5 22.56 7.5 18.71 3.51 18.78 3.51 15 0 15 0 7.5 3.71 7.5 3.71 3.71 7.5 3.71 7.5 0"/></svg>